<svg width="213" height="143" viewBox="0 0 213 143" fill="none" xmlns="http://www.w3.org/2000/svg">
<rect width="213" height="143" fill="#1E1E1E"/>
<g style="mix-blend-mode:luminosity">
<path d="M172.228 81.3673C172.1 81.6726 171.972 81.9779 171.838 82.2766C171.706 82.0271 171.575 81.7809 171.444 81.5347C168.65 76.3021 165.758 71.6997 162.538 69.1523C161.517 68.3448 160.46 67.744 159.363 67.396C159.623 64.829 160.03 62.541 160.643 60.6468C160.804 60.1511 160.982 59.6816 161.172 59.2418C161.707 58.0108 162.364 57.0063 163.165 56.2808C164.882 54.7215 167.449 54.6624 169.376 55.9558C172.822 58.2702 174.467 62.3178 174.795 66.907C175.13 71.5815 174.103 76.8239 172.228 81.3673Z" fill="#3C3C3C"/>
<path d="M171.839 83.5895C171.353 83.5895 170.905 83.3207 170.677 82.8887C167.383 76.6369 163.416 70.056 158.968 68.6466C158.376 68.4588 157.996 67.8815 158.058 67.2633C158.672 61.1677 160.014 57.3694 162.281 55.3099C164.404 53.3814 167.622 53.1984 170.107 54.8665C177.89 60.0902 177.473 72.8789 173.038 82.8118C172.833 83.2709 172.384 83.5726 171.882 83.5888C171.868 83.5893 171.853 83.5895 171.839 83.5895ZM160.781 66.5329C165.024 68.4349 168.523 73.5204 171.66 79.1792C174.583 70.8811 174.531 60.9983 168.644 57.0469C167.164 56.0536 165.274 56.1391 164.047 57.2537C162.447 58.7071 161.35 61.8263 160.781 66.5329Z" fill="black"/>
<g opacity="0.2">
<path d="M172.228 81.3672C172.127 81.4592 172.012 81.5346 171.88 81.5675C171.733 81.6069 171.585 81.5872 171.444 81.5346C168.65 76.302 165.758 71.6996 162.538 69.1522C161.497 66.4276 160.847 63.5552 160.644 60.6467C160.804 60.151 160.982 59.6815 161.172 59.2417C162.433 62.4555 165.092 65.1112 168.328 66.3258C170.38 67.0973 172.639 67.2778 174.795 66.9069C175.13 71.5814 174.103 76.8239 172.228 81.3672Z" fill="black"/>
</g>
<path d="M192.519 136.113C192.052 136.231 191.59 136.339 191.13 136.438C183.918 137.971 177.53 137.012 175.448 133.487L111.327 131.297C112.312 129.984 113.205 128.661 114.006 127.328C114.249 126.928 114.479 126.527 114.705 126.127C114.932 125.727 115.148 125.323 115.355 124.919C115.634 124.381 115.9 123.842 116.153 123.301C116.563 122.418 116.941 121.525 117.282 120.632C117.466 120.162 117.637 119.69 117.797 119.217C117.962 118.734 118.116 118.249 118.264 117.763C118.365 117.421 118.464 117.08 118.556 116.738C118.707 116.187 118.845 115.632 118.973 115.077C119.088 114.569 119.196 114.06 119.294 113.548C119.833 110.711 120.079 107.842 120.079 104.947C120.079 104.583 120.076 104.218 120.066 103.851C120.059 103.513 120.049 103.174 120.036 102.836C120.033 102.758 120.03 102.679 120.026 102.603C120.013 102.285 119.994 101.966 119.974 101.645C119.957 101.375 119.941 101.106 119.918 100.837C119.911 100.729 119.902 100.624 119.892 100.515C119.872 100.253 119.849 99.9901 119.823 99.7275C119.823 99.7046 119.82 99.6816 119.816 99.6553C119.803 99.501 119.787 99.3468 119.77 99.1925C119.767 99.1498 119.76 99.1071 119.757 99.0645C119.731 98.815 119.705 98.5688 119.672 98.3193C119.629 97.9484 119.583 97.5775 119.531 97.2032C119.508 97.0325 119.485 96.8617 119.458 96.6911C119.376 96.1199 119.288 95.5454 119.189 94.9709C119.13 94.6164 119.064 94.2619 118.999 93.9074C118.923 93.497 118.844 93.0899 118.762 92.6763C118.69 92.3185 118.615 91.9607 118.536 91.6029C118.457 91.2286 118.372 90.8544 118.283 90.4769C117.784 88.3102 117.19 86.1338 116.527 83.9508C114.889 78.5639 112.801 73.1245 110.529 67.6653C110.349 67.232 110.165 66.8019 109.984 66.3686C110.201 66.1881 110.418 66.0108 110.634 65.8368C116.77 60.8799 123.67 57.5348 130.659 55.9821C151.757 51.2846 173.682 62.8987 177.989 95.6504C178.222 97.4263 179.007 99.0873 180.211 100.414L190.44 111.657C192.978 110.958 195.45 110.794 197.843 111.276C198.742 111.46 199.596 111.831 200.354 112.343C203.558 114.51 205.978 116.863 207.675 119.23C215.284 129.82 208.417 140.653 192.519 136.113Z" fill="#3C3C3C"/>
<g opacity="0.2">
<path d="M110.529 67.6651C110.349 67.2318 110.165 66.8017 109.984 66.3684C110.296 65.9646 110.513 65.7874 110.634 65.8366C110.821 65.9154 110.785 66.5227 110.529 67.6651Z" fill="black"/>
</g>
<g opacity="0.2">
<path d="M196.665 131.438C196.303 132.151 195.197 134.16 192.519 136.113C184.752 138.082 177.661 137.239 175.448 133.487L111.327 131.297C112.312 129.984 113.205 128.661 114.006 127.328C114.249 126.928 114.479 126.527 114.705 126.127C114.932 125.727 115.148 125.323 115.355 124.919C115.634 124.381 115.9 123.842 116.153 123.301C116.563 122.418 116.941 121.525 117.282 120.632C117.463 120.162 117.633 119.69 117.797 119.217C117.962 118.734 118.116 118.248 118.264 117.763C118.365 117.421 118.464 117.08 118.556 116.738C118.707 116.187 118.845 115.632 118.973 115.077C119.088 114.569 119.196 114.06 119.294 113.548C119.833 110.711 120.079 107.842 120.079 104.947C120.079 104.583 120.076 104.218 120.066 103.851C120.059 103.512 120.049 103.174 120.036 102.836C120.033 102.757 120.03 102.679 120.026 102.603C120.013 102.285 119.994 101.966 119.974 101.645C119.957 101.375 119.941 101.106 119.918 100.837C119.911 100.729 119.902 100.624 119.892 100.515C119.872 100.253 119.849 99.9901 119.823 99.7275C119.823 99.7045 119.82 99.6815 119.816 99.6553C119.803 99.501 119.787 99.3467 119.77 99.1924C119.767 99.1497 119.76 99.1071 119.757 99.0644C119.731 98.8149 119.701 98.5687 119.672 98.3193C119.629 97.9484 119.583 97.5774 119.531 97.2031C119.508 97.0325 119.485 96.8617 119.458 96.691C119.376 96.1198 119.288 95.5454 119.189 94.9709C119.13 94.6163 119.064 94.2619 118.999 93.9073C118.923 93.497 118.844 93.0899 118.762 92.6763C118.69 92.3185 118.615 91.9606 118.536 91.6028C118.457 91.2286 118.372 90.8544 118.283 90.4768C117.784 88.3102 117.19 86.1338 116.527 83.9508C118.227 83.9179 119.918 83.3566 121.339 82.2766C124.396 88.8585 127.084 91.3959 129.054 92.453C129.549 92.7189 131.378 93.6315 133.567 95.3254C134.293 95.8867 135.284 96.6515 136.358 97.7874C138.475 100.023 138.675 101.313 142.083 106.431C142.592 107.192 142.821 107.517 142.926 107.662C143.747 108.811 145.024 110.436 146.78 112.149C148.129 113.466 149.797 115.068 152.443 116.499C153.063 116.834 155.483 118.101 158.926 118.797C160.308 119.076 162.143 119.447 164.507 119.263C165.59 119.178 166.083 119.03 167.954 118.879C168.896 118.803 169.973 118.862 171.565 118.715C173.846 118.505 176.371 118.272 178.458 118.879C180.812 119.565 182.178 121.193 184.367 123.803C187.594 127.65 187.463 129.58 189.62 130.204C192.364 130.999 195.141 128.75 195.364 128.563C197.216 127.023 197.754 125.031 197.909 124.338C198.05 125.631 198.171 128.464 196.665 131.438Z" fill="black"/>
</g>
<path d="M199.514 138.506C197.449 138.506 195.116 138.19 192.5 137.471C184.319 139.471 177.5 138.415 174.737 134.776L111.283 132.611C110.794 132.594 110.354 132.307 110.143 131.865C109.932 131.423 109.984 130.901 110.278 130.51C125.231 110.604 117.735 88.1606 108.776 66.8788C108.552 66.3466 108.702 65.7305 109.145 65.3608C122.44 54.2745 139.32 50.7563 153.198 56.1796C167.423 61.7382 176.69 75.6951 179.291 95.4795C179.489 96.9869 180.144 98.388 181.183 99.5312L190.881 110.19C193.404 109.598 195.83 109.53 198.103 109.99C199.16 110.204 200.165 110.63 201.091 111.256C211.503 118.303 213.639 126.868 211.137 132.229C209.57 135.586 205.793 138.506 199.514 138.506ZM192.52 134.8C192.641 134.8 192.763 134.817 192.88 134.85C200.574 137.048 206.657 135.618 208.757 131.119C210.722 126.908 208.701 119.577 199.619 113.431C198.983 113 198.297 112.709 197.583 112.564C195.481 112.139 193.195 112.26 190.79 112.923C190.313 113.054 189.803 112.907 189.47 112.54L179.241 101.298C177.839 99.7568 176.956 97.863 176.687 95.8217C174.217 77.0297 165.535 63.82 152.242 58.6255C139.511 53.6515 124.013 56.7754 111.576 66.7649C115.779 76.8244 120.106 88.5092 121.147 99.7608C122.21 111.255 119.811 121.196 113.816 130.069L175.494 132.174C175.943 132.19 176.353 132.433 176.581 132.82C178.385 135.883 184.807 136.714 192.197 134.84C192.303 134.813 192.411 134.8 192.52 134.8Z" fill="black"/>
<path d="M191.281 110.648L195.164 115C195.515 115.385 195.018 115.975 194.581 115.7L189.6 112.666C187.937 111.52 189.852 109.218 191.281 110.648Z" fill="black"/>
<path d="M187.549 135.682C189.944 135.631 192.402 135.09 194.205 133.459C196.062 131.812 196.967 129.313 197.361 126.866C197.403 126.61 197.645 126.437 197.901 126.479C198.139 126.519 198.306 126.733 198.293 126.969C198.215 128.32 198.013 129.685 197.574 131.016C196.198 135.475 192.198 137.809 187.746 138.301C185.925 138.466 185.719 135.792 187.549 135.682Z" fill="black"/>
<path d="M176.551 129.643C176.506 131.852 175.452 134.117 173.705 136.034C172.113 137.784 169.947 139.245 167.448 140.108C166.94 140.285 166.408 140.4 165.87 140.449C161.431 140.876 157.059 141.142 152.762 141.227C150.769 141.267 148.793 141.27 146.833 141.227C142.612 141.142 138.472 140.866 134.415 140.38C122.856 138.811 115.805 136.133 113.878 132.197C113.681 131.796 113.546 131.376 113.471 130.949C113.208 129.456 113.678 127.877 114.735 126.718L120.739 120.156L125.88 114.536C126.441 114.066 127.124 113.718 127.895 113.482C128.667 113.245 129.527 113.121 130.446 113.085C130.715 113.072 130.991 113.068 131.27 113.075C131.486 113.078 131.71 113.085 131.933 113.098C132.209 113.114 132.484 113.134 132.767 113.163H132.77C134.756 113.36 136.883 113.863 138.902 114.536C142.838 116.462 146.429 118.711 149.357 121.58C150.047 122.26 150.966 122.654 151.934 122.654H169.477C171.962 122.654 174.339 123.891 175.606 126.028C176.282 127.167 176.578 128.395 176.551 129.643Z" fill="#3C3C3C"/>
<path d="M139.139 114.051C142.881 115.415 146.455 117.505 149.419 120.225L150.186 120.943C150.814 121.528 151.665 121.661 152.484 121.607C155.865 121.602 163.082 121.553 166.414 121.545C167.682 121.572 169.626 121.438 170.878 121.644C176.277 122.493 179.127 128.009 177.039 132.981C175.238 137.332 171.072 140.582 166.537 141.615C155.061 142.814 143.378 143.002 131.929 141.35C126.165 140.374 117.227 138.813 113.441 133.99C111.532 131.694 111.673 128.089 113.676 125.917C116.786 122.507 121.749 117.106 124.912 113.65C126.123 112.405 127.981 114.116 126.849 115.422C124.952 117.505 120.017 122.9 118.178 124.918C117.753 125.41 116.435 126.808 116.011 127.292C114.374 128.906 114.306 131.027 115.836 132.729C119.538 136.521 127.183 137.829 132.34 138.741C143.36 140.4 154.603 140.199 165.687 139.218C170.389 138.538 176.046 133.612 175.307 128.536C174.714 125.219 171.781 123.55 168.557 123.772C164.2 123.746 156.894 123.725 152.483 123.701C151.164 123.781 149.788 123.392 148.817 122.489C147.825 121.526 146.746 120.57 145.648 119.732C143.456 118.026 141.07 116.547 138.665 115.021C138.124 114.687 138.534 113.827 139.139 114.051Z" fill="black"/>
<g opacity="0.2">
<path d="M175.012 130.966C174.985 132.607 174.516 134.275 173.705 135.84C172.113 137.656 169.946 139.169 167.448 140.065C166.939 140.249 166.408 140.367 165.869 140.42C161.431 140.863 157.059 141.139 152.761 141.227C150.769 141.267 148.793 141.27 146.833 141.227C142.611 141.135 138.469 140.853 134.414 140.348C122.856 138.719 115.805 135.942 113.878 131.862C113.681 131.448 113.546 131.012 113.471 130.568C113.628 129.521 114.052 128.517 114.702 127.703L120.739 120.156L125.879 114.536C126.395 114.175 127.064 113.784 127.895 113.482C128.666 113.245 129.526 113.121 130.446 113.085C130.715 113.072 130.991 113.068 131.27 113.075C130.882 113.117 130.462 113.219 130.039 113.423C129.375 113.735 128.781 114.26 128.112 115.386C126.49 118.117 126.434 121.042 126.431 121.613C126.398 125.927 128.496 128.894 129.05 129.653C131.119 132.492 133.643 133.556 134.871 133.94C137.136 134.646 139.519 134.714 141.869 134.659C144.683 134.593 147.516 134.347 150.293 134.869C154.813 135.716 159.002 138.562 163.581 138.65C168.23 138.742 172.717 135.545 175.012 130.966Z" fill="black"/>
</g>
<g opacity="0.2">
<path d="M197.676 127.276C197.679 127.319 197.679 127.358 197.679 127.398H197.676V127.276Z" fill="black"/>
</g>
<g opacity="0.2">
<path d="M192.518 136.113C192.052 136.231 191.589 136.339 191.13 136.438C194.921 135.23 197.712 131.372 197.679 127.397C199.015 128.077 200.456 128.612 201.953 128.661C203.453 128.714 205.019 128.224 206.037 127.125C206.943 126.143 207.333 124.787 207.54 123.464C207.757 122.066 207.799 120.638 207.675 119.23C215.284 129.82 208.417 140.653 192.518 136.113Z" fill="black"/>
</g>
<path d="M57.1829 67.245C49.9609 71.8901 40.7036 70.3603 36.4985 63.8277C35.3232 61.9992 34.6668 59.9705 34.4927 57.8991C34.4435 57.3181 34.4304 56.7338 34.4566 56.1461C34.6667 51.3632 37.3322 46.5705 41.9642 43.593C46.9342 40.3957 52.8693 40.1232 57.4553 42.3981C59.3035 43.3108 60.9317 44.6369 62.1889 46.3505C62.3465 46.5639 62.5008 46.7838 62.6452 47.0104C66.8472 53.5397 64.4016 62.6032 57.1829 67.245Z" fill="#3C3C3C"/>
<path d="M48.2238 71.2383C43.0744 71.2383 38.2043 68.9051 35.3958 64.5399C33.1599 61.0646 32.5505 56.8458 33.6804 52.6606C34.7972 48.5233 37.4862 44.9103 41.2523 42.4874C45.0184 40.0642 49.4208 39.1142 53.649 39.8134C57.9258 40.52 61.5126 42.8232 63.7485 46.2985C65.9844 49.7737 66.5938 53.9925 65.4639 58.1777C64.3471 62.3151 61.6581 65.928 57.892 68.3509C54.8606 70.3012 51.4859 71.2383 48.2238 71.2383ZM50.9148 42.2159C48.0645 42.2159 45.2053 43.0669 42.6732 44.6959C39.4559 46.7659 37.1627 49.8374 36.2158 53.3449C35.282 56.8045 35.7751 60.2758 37.6043 63.119C41.4084 69.0313 49.8722 70.3877 56.4712 66.1424C59.6886 64.0724 61.9818 61.0009 62.9287 57.4933C63.8624 54.0339 63.3694 50.5625 61.5401 47.7193C59.7107 44.8761 56.7563 42.9885 53.2209 42.4043C52.4574 42.2782 51.6863 42.2159 50.9148 42.2159Z" fill="black"/>
<path d="M53.8332 62.3382C56.7249 60.6686 57.7689 57.0632 56.165 54.2853C54.5612 51.5073 50.9167 50.6089 48.025 52.2785C45.1333 53.948 44.0893 57.5535 45.6931 60.3314C47.297 63.1093 50.9414 64.0078 53.8332 62.3382Z" fill="#80565A"/>
<path d="M50.7357 64.1629C48.3619 64.1629 46.0816 62.9719 44.843 60.8265C42.9701 57.5826 44.178 53.3665 47.5356 51.4282C50.8928 49.4896 55.1483 50.5515 57.0211 53.7956C58.894 57.0393 57.6861 61.2554 54.3286 63.1939C53.1915 63.8504 51.9513 64.1629 50.7357 64.1629ZM51.1324 52.4282C50.2505 52.4282 49.3485 52.6557 48.5204 53.1339C46.1035 54.5293 45.219 57.5385 46.5487 59.8419C47.8785 62.1452 50.9273 62.8837 53.3437 61.4883C55.7606 60.0927 56.6451 57.0836 55.3154 54.7804C54.4412 53.2663 52.8241 52.4282 51.1324 52.4282Z" fill="black"/>
<g opacity="0.2">
<path d="M57.1833 67.245C49.9614 71.8901 40.7041 70.3603 36.4989 63.8277C35.3237 61.9992 34.6672 59.9705 34.4932 57.8991C34.4964 57.8039 34.4997 57.712 34.503 57.6168C35.4813 58.6969 36.7451 59.5634 38.1304 60.0822C41.3671 61.2935 45.0865 60.8503 48.2707 59.5175C52.1903 57.8762 55.5057 54.8693 57.2456 51.1335C58.2993 48.8652 58.7524 46.3407 58.5587 43.8689C59.898 44.5024 61.1258 45.333 62.1894 46.3506C62.3469 46.564 62.5012 46.7839 62.6456 47.0105C66.8476 53.5397 64.402 62.6032 57.1833 67.245Z" fill="black"/>
</g>
<path d="M117.815 76.8108C119.637 79.9228 121.143 83.2186 122.322 86.6425C130.686 110.944 128.076 128.852 106.601 135.765C102.301 137.147 97.8197 137.866 93.3059 137.994C91.7072 138.04 90.1086 138.089 88.5099 138.197C73.2322 139.232 57.3734 138.805 41.078 137.262C21.2308 136.474 14.0547 121.544 26.0071 98.6638C27.0674 96.6384 27.8783 94.4915 28.4658 92.2855C33.6033 72.9897 43.7961 60.9586 59.8715 57.3673C59.2445 55.6799 57.8297 54.2126 56.0144 52.8568C59.3759 50.4834 63.8075 51.8129 68.4066 53.7169C68.3672 48.4317 70.9212 45.7006 74.6438 44.115C74.496 47.1252 76.377 49.9221 79.6499 52.568C85.7393 52.0822 90.9687 53.0932 95.7483 55.3517C105.293 60.9143 112.746 67.996 117.815 76.8108Z" fill="#3C3C3C"/>
<g opacity="0.2">
<path d="M122.322 86.6425C121.143 83.2186 119.636 79.9227 117.814 76.8107C112.746 67.9959 105.292 60.9142 95.748 55.3517C90.9684 53.0932 85.739 52.0821 79.6496 52.568C76.3767 49.9221 74.4958 47.1252 74.6435 44.115C72.9798 44.8236 71.5522 45.7638 70.4824 47.0558C70.8048 48.9359 71.9593 50.7273 73.7613 52.4481C74.4934 53.1471 75.489 53.4955 76.5005 53.4578C81.4844 53.2719 85.8393 54.2238 89.8506 56.1384C98.6499 61.3185 105.522 67.9134 110.195 76.1222C111.874 79.0203 113.263 82.0895 114.35 85.278C122.061 107.909 119.655 124.585 99.8562 131.023C95.8915 132.31 91.7603 132.98 87.5989 133.099C86.1251 133.142 84.6511 133.188 83.1773 133.289C69.092 134.251 54.4711 133.854 39.4475 132.417C27.8791 131.953 20.9829 126.224 20.2576 116.689C19.3971 129.126 27.0898 136.706 41.0778 137.262C57.3732 138.805 73.2319 139.231 88.5097 138.197C90.1084 138.089 91.7071 138.04 93.3057 137.994C97.8195 137.866 102.3 137.147 106.601 135.765C128.076 128.852 130.686 110.944 122.322 86.6425Z" fill="black"/>
</g>
<path d="M41.186 111.616C47.5023 115.284 45.8335 126.394 41.279 125.029C37.5961 123.985 36.9285 113.59 41.186 111.616Z" fill="black"/>
<path d="M71.2515 140.082C61.6608 140.082 51.6443 139.58 40.9895 138.572C31.6675 138.194 24.8998 134.815 21.4163 128.8C17.1333 121.403 18.3501 110.484 24.8426 98.0556C25.8246 96.1802 26.6164 94.1254 27.1964 91.9475C32.3855 72.4577 42.7155 60.5395 57.9136 56.4944C57.3081 55.6532 56.4189 54.7981 55.2281 53.9087C54.8913 53.6572 54.6952 53.2596 54.7008 52.8393C54.7065 52.4187 54.9131 52.0266 55.2564 51.784C58.8079 49.2771 63.1622 50.2874 67.1906 51.8182C67.6751 47.6085 69.9587 44.6829 74.1286 42.9069C74.5451 42.7296 75.0229 42.7795 75.3938 43.0377C75.765 43.2964 75.9769 43.7276 75.9547 44.1794C75.8418 46.48 77.1915 48.7866 80.0787 51.22C85.976 50.8285 91.2905 51.7932 96.3085 54.1645C96.9642 54.4743 97.2446 55.2569 96.9347 55.9126C96.625 56.5681 95.8421 56.8487 95.1867 56.5388C90.4433 54.2975 85.3956 53.4264 79.7538 53.8768C79.4175 53.9046 79.0857 53.8006 78.8238 53.5891C75.8021 51.1464 74.0451 48.7028 73.5033 46.1724C70.8736 47.8035 69.6928 50.1909 69.719 53.7071C69.7223 54.1475 69.5047 54.56 69.1397 54.8059C68.7743 55.052 68.3099 55.0988 67.9038 54.9301C64.0617 53.3397 60.8989 52.4318 58.4147 53.1437C59.7362 54.3745 60.6214 55.6173 61.1018 56.91C61.234 57.2656 61.2058 57.6608 61.0248 57.9942C60.8439 58.3274 60.5274 58.5662 60.1572 58.6489C44.8625 62.0657 34.911 73.179 29.7339 92.6234C29.1038 94.9892 28.2411 97.2264 27.1696 99.2729C21.1092 110.874 19.8728 120.894 23.6889 127.484C26.703 132.689 32.7337 135.617 41.1293 135.95C41.1533 135.951 41.1771 135.952 41.201 135.954C58.3138 137.575 73.7593 137.879 88.4204 136.888C89.9995 136.78 91.5497 136.731 93.2675 136.682C97.7717 136.554 102.122 135.825 106.198 134.515C114.328 131.898 119.737 127.715 122.732 121.728C126.829 113.54 126.288 102.204 121.079 87.07C119.926 83.7171 118.445 80.4886 116.681 77.4741C116.314 76.8484 116.525 76.0439 117.15 75.6776C117.776 75.3112 118.581 75.5213 118.947 76.1474C120.799 79.3112 122.352 82.6987 123.562 86.2152C129.013 102.051 129.51 114.051 125.081 122.903C121.799 129.461 115.717 134.209 107.002 137.015C102.689 138.401 98.0938 139.172 93.3423 139.307C91.6529 139.355 90.1298 139.404 88.5978 139.507C82.9463 139.89 77.1804 140.082 71.2515 140.082Z" fill="black"/>
<path d="M60.1931 93.6653C61.8272 97.0539 64.2257 101.247 68.384 101.419C72.5694 101.297 75.025 97.0995 76.7233 93.7312C76.9604 93.224 77.7446 93.4667 77.6512 94.0195C76.7876 100.293 71.2449 106.624 64.5663 103.002C62.3848 101.726 60.8905 99.6514 59.9169 97.4196C59.462 96.331 59.1172 95.2164 58.8923 94.0853C58.8181 93.7126 59.0602 93.3505 59.4328 93.2763C59.7522 93.2127 60.0639 93.3819 60.1931 93.6653Z" fill="black"/>
<path d="M29.7014 93.2119C28.4845 98.7603 33.353 99.0536 36.6262 95.9144C37.6585 94.9311 38.4184 93.6558 38.8999 92.2747C39.1565 91.5618 40.2332 91.8897 40.0475 92.6266C39.058 96.6457 35.1731 100.666 30.68 99.7753C27.5368 99.0673 26.6825 95.5501 27.1043 92.7924C27.3758 90.9879 30.0113 91.4132 29.7014 93.2119Z" fill="black"/>
<path d="M29.8625 104.928C32.9082 95.958 43.9465 93.622 51.3672 98.8125C53.7322 100.409 55.6331 102.597 56.9554 105.036C57.0847 105.274 56.9961 105.572 56.7577 105.702C56.5387 105.821 56.2689 105.755 56.1267 105.559C54.537 103.441 52.6424 101.597 50.433 100.278C45.2958 97.083 38.1714 97.2496 33.6917 101.487C32.5227 102.59 31.551 103.887 30.7837 105.33C30.496 105.862 29.6671 105.506 29.8625 104.928Z" fill="black"/>
<path d="M41.1335 105.543C40.1702 105.544 39.2503 105.125 38.6046 104.374C37.4825 103.072 36.6539 101.719 36.1417 100.353C35.7943 99.427 36.2517 98.3835 37.1611 98.0271C40.5428 96.7006 44.3183 96.7293 48.3828 98.1125C48.811 98.2582 49.1504 98.5843 49.3145 99.0072C49.478 99.4284 49.4475 99.8959 49.2308 100.29C47.7375 103.006 44.7475 105.055 41.6135 105.509C41.453 105.532 41.2926 105.543 41.1335 105.543ZM42.399 98.355C40.7395 98.355 39.1609 98.6531 37.6405 99.2493C37.6405 99.2495 37.6404 99.2495 37.6404 99.2495C37.3952 99.3455 37.2742 99.6338 37.3712 99.8919C37.8289 101.112 38.5787 102.332 39.5997 103.518C40.0509 104.042 40.749 104.308 41.4252 104.209C44.1238 103.818 46.7983 101.989 48.0802 99.6573C48.1201 99.5849 48.1037 99.5163 48.0902 99.4821C48.0766 99.4467 48.0415 99.3833 47.96 99.3555C45.9988 98.6884 44.1536 98.355 42.399 98.355Z" fill="black"/>
<path d="M37.4009 98.6382C40.8127 97.3002 44.4192 97.4575 48.1716 98.734C48.6805 98.9072 48.9146 99.5025 48.6557 99.9736C47.3004 102.439 44.5149 104.425 41.5194 104.859C40.6126 104.99 39.7001 104.641 39.1023 103.946C38.0411 102.714 37.2509 101.44 36.7566 100.122C36.5362 99.5349 36.8168 98.8672 37.4009 98.6382Z" fill="black"/>
<path d="M43.657 98.9852C43.6257 98.5103 42.3537 98.2075 40.8161 98.3089C39.2783 98.4102 38.0572 98.8774 38.0885 99.3522C38.1198 99.8271 39.3917 100.13 40.9294 100.029C42.4671 99.9272 43.6883 99.46 43.657 98.9852Z" fill="#3C3C3C"/>
<path d="M41.0781 112.97C40.7875 112.97 40.5061 112.815 40.3569 112.542C38.8888 109.852 38.8846 106.265 40.3466 103.405C40.5526 103.001 41.0474 102.841 41.4508 103.047C41.8544 103.254 42.0145 103.748 41.8082 104.152C40.6046 106.507 40.6005 109.562 41.7978 111.756C42.0148 112.154 41.8684 112.652 41.4706 112.869C41.3457 112.938 41.2108 112.97 41.0781 112.97Z" fill="black"/>
<path d="M42.0491 125.968C41.7226 125.968 41.3863 125.918 41.0432 125.815C38.7375 125.161 37.6842 122.051 37.4712 119.36C37.2274 116.278 37.9637 112.205 40.8408 110.872C41.0838 110.759 41.3662 110.772 41.598 110.907C46.3339 113.657 46.8764 119.973 45.4408 123.288C44.6908 125.02 43.4645 125.968 42.0491 125.968ZM41.1616 112.569C39.481 113.7 38.9101 116.735 39.1074 119.23C39.3137 121.838 40.2986 123.898 41.5027 124.239C42.7759 124.622 43.5268 123.577 43.9347 122.635C45.116 119.908 44.5898 114.889 41.1616 112.569Z" fill="black"/>
<path d="M39.4707 123.462C39.4707 120.028 42.0618 117.484 45.1927 117.838C46.1242 123.557 42.4064 127.455 39.4707 123.462Z" fill="#FF67A0"/>
<g opacity="0.3">
<path d="M45.193 117.838C43.2105 117.614 41.4468 118.554 40.418 120.144C40.4265 120.139 40.4349 120.135 40.4434 120.13C41.8454 119.395 43.525 120.538 43.4036 122.116C43.3168 123.242 43.0372 124.229 42.627 125.006C44.4487 124.479 45.7963 121.542 45.193 117.838Z" fill="black"/>
</g>
<path d="M42.0356 125.588C40.9972 125.588 39.9577 124.955 39.0742 123.754C39.012 123.669 38.9785 123.567 38.9785 123.462C38.9785 121.584 39.7186 119.847 41.0092 118.694C42.1786 117.649 43.684 117.17 45.2484 117.349C45.4676 117.374 45.6435 117.541 45.679 117.759C46.2548 121.294 45.1561 124.497 43.0666 125.375C42.727 125.518 42.3814 125.588 42.0356 125.588ZM39.9654 123.3C40.8385 124.425 41.8001 124.838 42.6851 124.467C44.0514 123.893 45.1624 121.456 44.7624 118.3C43.6176 118.268 42.5289 118.657 41.6651 119.428C40.6204 120.362 40.006 121.765 39.9654 123.3Z" fill="black"/>
<path d="M112.099 78.4234C120.299 77.6816 126.737 70.2757 126.737 61.2516C126.737 51.735 119.577 44.0173 110.743 44.0173C101.91 44.0173 94.75 51.735 94.75 61.2516C94.75 61.4912 94.7533 61.7308 94.7631 61.9672C96.5555 68.1726 103.23 75.3946 112.099 78.4234Z" fill="#3C3C3C"/>
<g opacity="0.2">
<path d="M113.792 44.3337C119.388 46.9526 123.29 52.8457 123.29 59.6991C123.29 66.9695 118.901 73.1632 112.755 75.5088C110.429 76.3962 107.824 76.2734 105.567 75.224C105.557 75.2193 105.547 75.2147 105.537 75.21C107.536 76.5119 109.739 77.6171 112.099 78.4233C120.3 77.6814 126.737 70.2756 126.737 61.2514C126.737 52.8583 121.167 45.8681 113.792 44.3337Z" fill="black"/>
</g>
<path d="M112.068 78.0754C112.619 77.7424 113.163 77.5486 113.705 77.2562C114.18 77.0015 114.782 76.754 115.241 76.4765C115.562 76.272 115.918 76.1709 116.224 75.9505C118.492 74.7344 120.563 73.1185 122.056 71.0083C124.44 67.7155 125.416 63.4952 125.03 59.4703C124.73 56.5377 123.649 53.69 121.889 51.3188C119.244 47.7609 115.105 45.4672 110.635 45.4665C110.264 45.4964 109.349 45.5013 108.994 45.5771C108.495 45.6721 107.862 45.7225 107.38 45.8843C106.355 46.1316 105.233 46.5569 104.308 47.0647C102.012 48.2526 100.075 50.1278 98.6713 52.2958C98.1058 53.2643 97.7114 54.3111 97.2444 55.3236C96.8422 56.1617 96.4951 57.0735 96.1775 57.9508C95.7592 59.2813 95.4327 60.6077 95.1731 61.9975C95.1359 62.2254 94.9209 62.3802 94.6928 62.3429C94.5064 62.3125 94.3691 62.1627 94.3454 61.9846C94.2911 61.5722 94.2377 61.1564 94.2233 60.7399C94.1296 59.691 94.1829 58.6344 94.2678 57.5838C94.439 56.4272 94.6607 55.2655 95.0192 54.1495C95.1807 53.7178 95.4457 53.0829 95.6141 52.6516C95.9014 52.0748 96.2307 51.5163 96.5493 50.955C103.032 40.7625 116.722 40.0296 124.112 49.6367C124.251 49.8236 124.913 50.8023 125.036 50.9718C125.271 51.3749 125.599 51.9788 125.831 52.3852C127.497 55.6587 128.163 59.3914 127.858 63.0458C127.67 64.752 127.275 66.4523 126.683 68.0647C126.285 69.0526 125.809 70.0487 125.28 70.9713C124.768 71.8486 124.042 72.8015 123.396 73.5925C120.625 76.787 116.488 79.3162 112.131 78.7714C111.746 78.7075 111.721 78.214 112.068 78.0754Z" fill="black"/>
<path d="M104.934 61.4321C104.868 60.0041 105.278 58.5105 106.197 57.2138C108.262 54.2955 112.119 53.4748 114.811 55.3821C117.503 57.2861 118.012 61.1958 115.947 64.1141C114.621 65.9852 112.563 66.9963 110.547 66.9766C108.686 64.938 106.824 63.0833 104.934 61.4321V61.4288Z" fill="#80565A"/>
<g opacity="0.2">
<path d="M105.439 61.8807C105.635 61.4037 105.884 60.9382 106.197 60.4965C108.262 57.5782 112.119 56.7575 114.811 58.6648C115.927 59.4538 116.661 60.5895 116.999 61.8542C117.633 59.4141 116.849 56.8235 114.811 55.3821C112.119 53.4748 108.262 54.2955 106.197 57.2138C105.278 58.5105 104.868 60.0041 104.934 61.4321C105.102 61.5794 105.27 61.7302 105.439 61.8807Z" fill="black"/>
</g>
<path d="M110.605 67.9616C110.582 67.9616 110.559 67.9613 110.537 67.9612C110.263 67.9587 110.003 67.8424 109.819 67.6405C107.897 65.5358 106.088 63.7486 104.289 62.1767C104.094 62.0088 103.966 61.7656 103.95 61.4899C103.95 61.4895 103.95 61.4886 103.95 61.4881C103.95 61.488 103.95 61.488 103.95 61.4877C103.949 61.4839 103.949 61.4799 103.949 61.4759C103.872 59.7833 104.384 58.0674 105.393 56.6441C106.535 55.0306 108.194 53.9226 110.064 53.5248C111.963 53.1206 113.851 53.495 115.38 54.5783C116.908 55.6595 117.888 57.3153 118.139 59.2405C118.385 61.136 117.892 63.0686 116.75 64.6827C115.292 66.7398 112.999 67.9616 110.605 67.9616ZM105.913 60.9829C107.564 62.4472 109.224 64.088 110.968 65.979C112.592 65.8632 114.13 64.9737 115.143 63.5445C115.998 62.3364 116.368 60.8979 116.185 59.4947C116.007 58.1211 115.317 56.9461 114.242 56.186C113.166 55.4241 111.828 55.1642 110.473 55.4514C109.089 55.7459 107.856 56.5736 107.001 57.7824C106.325 58.736 105.945 59.8586 105.913 60.9829Z" fill="black"/>
</g>
<g style="mix-blend-mode:luminosity">
<g opacity="0.3">
<path d="M5.21378 91.9629C2.32824 88.145 1.0382 83.2768 0.985673 78.4906C0.956096 75.7397 1.42225 72.7556 3.40506 70.8517C5.27293 69.0594 8.23065 68.6458 10.65 69.5682C13.0661 70.4906 14.9274 72.6014 15.863 75.0109C16.8018 77.4237 16.8773 80.1089 16.4341 82.6563C15.968 85.335 14.9438 87.925 14.8289 90.6399C14.7107 93.3908 15.5708 96.1746 17.2121 98.3838C12.5211 98.3346 8.04343 95.7117 5.21378 91.9629Z" fill="#3C3C3C"/>
</g>
<path d="M6.06451 91.4658C3.69139 88.2976 2.4041 84.4476 2.06825 80.5213C1.79067 77.2764 1.79537 72.7642 4.99805 70.8737C8.07147 69.0594 11.8629 70.523 13.8099 73.2696C14.957 74.8877 15.5586 76.8108 15.6823 78.7833C15.818 80.9487 15.4055 83.0217 14.8726 85.108C14.2677 87.4763 13.644 89.8864 13.8955 92.3517C14.1354 94.7031 14.962 96.97 16.3621 98.881C16.6456 98.3871 16.929 97.8931 17.2125 97.3992C12.8351 97.3284 8.68825 94.9104 6.06451 91.4658C5.74275 91.0434 5.21588 90.8208 4.7171 91.1125C4.30117 91.3559 4.03953 92.0343 4.36383 92.4599C7.42302 96.4762 12.0828 99.2859 17.2125 99.3687C17.9046 99.3799 18.5131 98.5014 18.0628 97.8868C16.8444 96.224 16.0351 94.2591 15.8503 92.1965C15.6434 89.8873 16.2517 87.6789 16.815 85.4628C17.3983 83.1677 17.8338 80.8243 17.6269 78.4467C17.4363 76.2559 16.7922 74.0833 15.5106 72.2754C14.3365 70.6192 12.7615 69.3026 10.847 68.5945C9.03237 67.9234 6.89995 67.9368 5.10041 68.6498C3.13018 69.4304 1.70902 70.9464 0.903747 72.891C0.135577 74.7462 -0.0378573 76.8127 0.00639571 78.8029C0.113899 83.6345 1.43933 88.5557 4.36383 92.4599C4.68217 92.885 5.21506 93.1035 5.71123 92.8132C6.13007 92.5682 6.38524 91.894 6.06451 91.4658Z" fill="black"/>
<path d="M8.05958 74.9975C8.25168 74.0114 7.608 73.0562 6.62186 72.8641C5.63572 72.672 4.68056 73.3157 4.48846 74.3018C4.29636 75.288 4.94005 76.2431 5.92619 76.4352C6.91233 76.6273 7.86748 75.9836 8.05958 74.9975Z" fill="#3C3C3C"/>
<path d="M4.28964 78.724C3.80957 80.6302 3.95499 82.6886 4.69835 84.5084C4.82403 84.816 4.97124 85.1242 5.20987 85.3555C5.44849 85.5868 5.79678 85.7296 6.11825 85.6456C6.60436 85.5187 6.83657 84.9387 6.80253 84.4375C6.76848 83.9362 6.54826 83.4673 6.4523 82.9741C6.26002 81.9853 6.57523 80.9769 6.8704 80.0138C7.05479 79.4121 7.20527 78.6779 6.77422 78.2193C6.53232 77.962 6.16116 77.8676 5.80818 77.8549C5.41422 77.8406 5.00335 77.92 4.68889 78.1578C4.37443 78.3955 4.17916 78.8129 4.27743 79.1946" fill="#3C3C3C"/>
</g>
<g style="mix-blend-mode:luminosity">
<path d="M25.6326 50.3516H16.639C16.2312 50.3516 15.8648 50.1024 15.7152 49.7232C15.5653 49.344 15.6624 48.9118 15.96 48.6332L23.1186 41.9291H16.639C16.0904 41.9291 15.6455 41.4841 15.6455 40.9356C15.6455 40.387 16.0904 39.9421 16.639 39.9421H25.6326C26.0404 39.9421 26.4067 40.1913 26.5564 40.5705C26.7063 40.9497 26.6092 41.3819 26.3116 41.6606L19.153 48.3647H25.6326C26.1812 48.3647 26.6261 48.8096 26.6261 49.3581C26.6261 49.9067 26.1812 50.3516 25.6326 50.3516Z" fill="#3C3C3C"/>
<path d="M37.0506 31.4845C37.0178 31.4845 36.9851 31.4834 36.952 31.4808L25.4804 30.6007C24.9602 30.5607 24.5173 30.2071 24.3634 29.7087C24.2093 29.2103 24.3754 28.6685 24.7823 28.3422L34.5695 20.4916L26.3045 19.8573C25.6048 19.8035 25.081 19.1927 25.1346 18.4929C25.1885 17.7929 25.801 17.2743 26.4991 17.323L37.9708 18.2033C38.4908 18.2433 38.9337 18.5969 39.0877 19.0953C39.2417 19.5936 39.0756 20.1354 38.6687 20.4618L28.8814 28.3124L37.1463 28.9465C37.8462 29.0003 38.37 29.6111 38.3163 30.3109C38.265 30.9775 37.7081 31.4845 37.0506 31.4845Z" fill="#3C3C3C"/>
<path d="M7.43477 14.9077C6.98658 14.9077 6.56536 14.6702 6.33583 14.2744C6.07411 13.8232 6.11463 13.2579 6.43819 12.8488L14.2196 3.00607L6.0224 4.23837C5.32963 4.34349 4.68103 3.86498 4.57681 3.17071C4.47243 2.47667 4.95042 1.82934 5.64446 1.72512L17.0221 0.0146714C17.5374 -0.0645966 18.0486 0.182369 18.3104 0.633839C18.5721 1.08509 18.5316 1.6504 18.2079 2.05947L10.4266 11.9021L18.6238 10.6698C19.3168 10.5661 19.9652 11.0434 20.0694 11.7375C20.1738 12.4316 19.6958 13.0788 19.0017 13.1831L7.62408 14.8935C7.56083 14.9032 7.4975 14.9077 7.43477 14.9077Z" fill="#3C3C3C"/>
</g>
</svg>
