<svg width="1200" height="630" viewBox="0 0 1200 630" fill="none" xmlns="http://www.w3.org/2000/svg">
<g clip-path="url(#clip0_841_13)">
<rect width="1200" height="630" fill="url(#paint0_linear_841_13)"/>
<path d="M341.728 290.191V152.064H372.457V290.191H341.728ZM442.325 292.343C432.539 292.343 423.666 290.191 415.706 285.887C407.747 281.582 401.484 275.648 396.917 268.083C392.35 260.518 390.066 252.04 390.066 242.649C390.066 233.127 392.35 224.649 396.917 217.215C401.614 209.65 407.943 203.715 415.902 199.411C423.862 195.107 432.8 192.954 442.717 192.954C450.154 192.954 456.94 194.259 463.072 196.867C469.336 199.346 474.881 203.128 479.709 208.215L460.528 227.388C458.31 224.91 455.7 223.084 452.699 221.91C449.828 220.736 446.501 220.149 442.717 220.149C438.411 220.149 434.562 221.128 431.169 223.084C427.907 224.91 425.297 227.519 423.34 230.91C421.513 234.171 420.6 238.018 420.6 242.453C420.6 246.888 421.513 250.801 423.34 254.192C425.297 257.583 427.972 260.257 431.365 262.213C434.757 264.17 438.541 265.148 442.717 265.148C446.631 265.148 450.089 264.496 453.09 263.192C456.222 261.757 458.897 259.8 461.115 257.322L480.101 276.496C475.142 281.713 469.531 285.691 463.268 288.43C457.005 291.039 450.024 292.343 442.325 292.343ZM538.107 292.343C527.799 292.343 518.6 290.256 510.51 286.082C502.552 281.778 496.289 275.843 491.722 268.278C487.155 260.713 484.872 252.17 484.872 242.649C484.872 233.127 487.09 224.649 491.526 217.215C496.093 209.65 502.226 203.715 509.923 199.411C517.621 195.107 526.299 192.954 535.954 192.954C545.349 192.954 553.635 194.976 560.812 199.019C567.989 203.063 573.599 208.671 577.644 215.845C581.82 223.019 583.908 231.236 583.908 240.497C583.908 242.192 583.777 244.018 583.516 245.975C583.386 247.801 583.06 249.953 582.538 252.431L500.53 252.627V232.084L569.815 231.888L556.897 240.497C556.767 235.018 555.919 230.519 554.353 226.997C552.787 223.345 550.438 220.606 547.307 218.78C544.306 216.823 540.587 215.845 536.15 215.845C531.453 215.845 527.342 216.954 523.819 219.171C520.427 221.258 517.752 224.258 515.795 228.171C513.968 232.084 513.054 236.844 513.054 242.453C513.054 248.062 514.033 252.888 515.99 256.931C518.078 260.844 520.949 263.909 524.602 266.126C528.386 268.213 532.823 269.257 537.912 269.257C542.609 269.257 546.85 268.474 550.634 266.909C554.418 265.213 557.745 262.735 560.616 259.474L577.057 275.909C572.36 281.387 566.684 285.495 560.029 288.234C553.374 290.973 546.067 292.343 538.107 292.343ZM609.768 290.191V155.782H639.715V290.191H609.768ZM588.238 220.541V195.107H661.245V220.541H588.238ZM719.502 292.343C709.194 292.343 699.995 290.256 691.904 286.082C683.945 281.778 677.682 275.843 673.115 268.278C668.548 260.713 666.264 252.17 666.264 242.649C666.264 233.127 668.482 224.649 672.919 217.215C677.486 209.65 683.619 203.715 691.317 199.411C699.016 195.107 707.693 192.954 717.349 192.954C726.744 192.954 735.03 194.976 742.206 199.019C749.383 203.063 754.994 208.671 759.039 215.845C763.215 223.019 765.302 231.236 765.302 240.497C765.302 242.192 765.172 244.018 764.911 245.975C764.78 247.801 764.454 249.953 763.932 252.431L681.922 252.627V232.084L751.21 231.888L738.292 240.497C738.161 235.018 737.313 230.519 735.747 226.997C734.182 223.345 731.833 220.606 728.701 218.78C725.7 216.823 721.981 215.845 717.545 215.845C712.847 215.845 708.737 216.954 705.214 219.171C701.821 221.258 699.146 224.258 697.189 228.171C695.362 232.084 694.449 236.844 694.449 242.453C694.449 248.062 695.427 252.888 697.385 256.931C699.473 260.844 702.343 263.909 705.997 266.126C709.781 268.213 714.217 269.257 719.306 269.257C724.004 269.257 728.244 268.474 732.029 266.909C735.813 265.213 739.14 262.735 742.011 259.474L758.452 275.909C753.754 281.387 748.078 285.495 741.423 288.234C734.769 290.973 727.462 292.343 719.502 292.343ZM779.758 290.191V195.107H809.704V290.191H779.758ZM809.704 237.953L797.177 228.171C799.656 217.084 803.832 208.476 809.704 202.345C815.576 196.215 823.731 193.15 834.17 193.15C838.737 193.15 842.717 193.867 846.109 195.302C849.632 196.607 852.699 198.693 855.308 201.563L837.497 224.062C836.192 222.627 834.561 221.519 832.604 220.736C830.647 219.954 828.428 219.562 825.949 219.562C820.991 219.562 817.011 221.128 814.01 224.258C811.139 227.258 809.704 231.823 809.704 237.953ZM863.284 290.191V195.107H893.231V290.191H863.284ZM878.355 181.998C873.658 181.998 869.743 180.433 866.612 177.303C863.61 174.042 862.11 170.129 862.11 165.564C862.11 160.868 863.61 156.955 866.612 153.825C869.743 150.695 873.658 149.13 878.355 149.13C883.053 149.13 886.902 150.695 889.903 153.825C892.904 156.955 894.405 160.868 894.405 165.564C894.405 170.129 892.904 174.042 889.903 177.303C886.902 180.433 883.053 181.998 878.355 181.998ZM948.964 292.539C943.353 292.539 937.807 291.821 932.327 290.386C926.977 288.952 921.954 286.93 917.256 284.321C912.689 281.582 908.775 278.452 905.512 274.93L922.541 257.713C925.672 261.105 929.391 263.779 933.697 265.735C938.003 267.561 942.701 268.474 947.79 268.474C951.313 268.474 953.988 267.952 955.814 266.909C957.772 265.865 958.75 264.431 958.75 262.605C958.75 260.257 957.576 258.496 955.227 257.322C953.009 256.018 950.138 254.909 946.615 253.996C943.092 252.953 939.373 251.844 935.459 250.67C931.544 249.496 927.825 247.866 924.302 245.779C920.779 243.692 917.909 240.823 915.69 237.171C913.472 233.388 912.363 228.627 912.363 222.888C912.363 216.758 913.929 211.476 917.06 207.041C920.192 202.476 924.629 198.889 930.37 196.28C936.111 193.672 942.831 192.367 950.53 192.367C958.62 192.367 966.057 193.802 972.843 196.672C979.758 199.411 985.369 203.519 989.675 208.997L972.647 226.214C969.646 222.693 966.253 220.215 962.469 218.78C958.816 217.345 955.227 216.628 951.704 216.628C948.312 216.628 945.767 217.149 944.071 218.193C942.374 219.106 941.526 220.475 941.526 222.301C941.526 224.258 942.635 225.823 944.854 226.997C947.072 228.171 949.943 229.214 953.466 230.127C956.989 231.04 960.708 232.149 964.622 233.453C968.537 234.758 972.256 236.518 975.779 238.736C979.302 240.953 982.172 243.953 984.391 247.735C986.609 251.388 987.718 256.214 987.718 262.213C987.718 271.474 984.195 278.843 977.149 284.321C970.233 289.799 960.838 292.539 948.964 292.539ZM1064.83 290.191L1031.56 240.888L1064.64 195.107H1098.11L1058.18 246.562L1059.16 234.236L1100.07 290.191H1064.83ZM1003.96 290.191V148.151H1033.91V290.191H1003.96Z" fill="#1E1E1E"/>
<path fill-rule="evenodd" clip-rule="evenodd" d="M197.864 119C143.815 119 100 162.797 100 216.823C100 270.849 143.815 314.647 197.864 314.647C251.912 314.647 295.728 270.849 295.728 216.823C295.728 162.797 251.912 119 197.864 119ZM197.829 135.304C186.569 135.304 177.44 144.428 177.44 155.684V181.524L155.053 168.604C145.302 162.976 132.833 166.316 127.202 176.064C121.572 185.811 124.914 198.275 134.665 203.903L157.053 216.823L134.664 229.744C124.912 235.371 121.571 247.836 127.201 257.583C132.831 267.331 145.3 270.671 155.052 265.043L177.44 252.122V277.963C177.44 289.218 186.569 298.343 197.829 298.343C209.089 298.343 218.217 289.218 218.217 277.963V252.122L240.606 265.042C250.357 270.67 262.827 267.33 268.457 257.583C274.087 247.835 270.746 235.371 260.994 229.743L238.606 216.823L260.992 203.903C270.744 198.276 274.085 185.811 268.455 176.064C262.825 166.316 250.356 162.976 240.604 168.604L218.217 181.524V155.684C218.217 144.428 209.089 135.304 197.829 135.304Z" fill="#0077CE"/>
<path d="M500.273 334.727V358H497.545L484.864 339.727H484.636V358H481.818V334.727H484.545L497.273 353.045H497.5V334.727H500.273ZM512.639 358.364C511.063 358.364 509.681 357.989 508.491 357.239C507.31 356.489 506.385 355.439 505.719 354.091C505.06 352.742 504.73 351.167 504.73 349.364C504.73 347.545 505.06 345.958 505.719 344.602C506.385 343.246 507.31 342.193 508.491 341.443C509.681 340.693 511.063 340.318 512.639 340.318C514.215 340.318 515.594 340.693 516.776 341.443C517.965 342.193 518.889 343.246 519.548 344.602C520.215 345.958 520.548 347.545 520.548 349.364C520.548 351.167 520.215 352.742 519.548 354.091C518.889 355.439 517.965 356.489 516.776 357.239C515.594 357.989 514.215 358.364 512.639 358.364ZM512.639 355.955C513.836 355.955 514.821 355.648 515.594 355.034C516.366 354.42 516.938 353.614 517.31 352.614C517.681 351.614 517.866 350.53 517.866 349.364C517.866 348.197 517.681 347.11 517.31 346.102C516.938 345.095 516.366 344.28 515.594 343.659C514.821 343.038 513.836 342.727 512.639 342.727C511.442 342.727 510.457 343.038 509.685 343.659C508.912 344.28 508.34 345.095 507.969 346.102C507.598 347.11 507.412 348.197 507.412 349.364C507.412 350.53 507.598 351.614 507.969 352.614C508.34 353.614 508.912 354.42 509.685 355.034C510.457 355.648 511.442 355.955 512.639 355.955ZM532.233 340.545V342.818H523.188V340.545H532.233ZM525.824 336.364H528.506V353C528.506 353.758 528.616 354.326 528.835 354.705C529.063 355.076 529.35 355.326 529.699 355.455C530.055 355.576 530.43 355.636 530.824 355.636C531.119 355.636 531.362 355.621 531.551 355.591C531.741 355.553 531.892 355.523 532.006 355.5L532.551 357.909C532.369 357.977 532.116 358.045 531.79 358.114C531.464 358.189 531.051 358.227 530.551 358.227C529.794 358.227 529.051 358.064 528.324 357.739C527.604 357.413 527.006 356.917 526.528 356.25C526.059 355.583 525.824 354.742 525.824 353.727V336.364ZM543.398 358.364C541.716 358.364 540.265 357.992 539.045 357.25C537.833 356.5 536.898 355.455 536.239 354.114C535.587 352.765 535.261 351.197 535.261 349.409C535.261 347.621 535.587 346.045 536.239 344.682C536.898 343.311 537.814 342.242 538.989 341.477C540.17 340.705 541.549 340.318 543.125 340.318C544.034 340.318 544.932 340.47 545.818 340.773C546.705 341.076 547.511 341.568 548.239 342.25C548.966 342.924 549.545 343.818 549.977 344.932C550.409 346.045 550.625 347.417 550.625 349.045V350.182H537.17V347.864H547.898C547.898 346.879 547.701 346 547.307 345.227C546.92 344.455 546.367 343.845 545.648 343.398C544.936 342.951 544.095 342.727 543.125 342.727C542.057 342.727 541.133 342.992 540.352 343.523C539.58 344.045 538.985 344.727 538.568 345.568C538.152 346.409 537.943 347.311 537.943 348.273V349.818C537.943 351.136 538.17 352.254 538.625 353.17C539.087 354.08 539.727 354.773 540.545 355.25C541.364 355.72 542.314 355.955 543.398 355.955C544.102 355.955 544.739 355.856 545.307 355.659C545.883 355.455 546.379 355.152 546.795 354.75C547.212 354.341 547.534 353.833 547.761 353.227L550.352 353.955C550.08 354.833 549.621 355.606 548.977 356.273C548.333 356.932 547.538 357.447 546.591 357.818C545.644 358.182 544.58 358.364 543.398 358.364ZM571.295 340.545V342.818H562.25V340.545H571.295ZM564.886 336.364H567.568V353C567.568 353.758 567.678 354.326 567.898 354.705C568.125 355.076 568.413 355.326 568.761 355.455C569.117 355.576 569.492 355.636 569.886 355.636C570.182 355.636 570.424 355.621 570.614 355.591C570.803 355.553 570.955 355.523 571.068 355.5L571.614 357.909C571.432 357.977 571.178 358.045 570.852 358.114C570.527 358.189 570.114 358.227 569.614 358.227C568.856 358.227 568.114 358.064 567.386 357.739C566.667 357.413 566.068 356.917 565.591 356.25C565.121 355.583 564.886 354.742 564.886 353.727V336.364ZM580.466 358.409C579.36 358.409 578.356 358.201 577.455 357.784C576.553 357.36 575.837 356.75 575.307 355.955C574.777 355.152 574.511 354.182 574.511 353.045C574.511 352.045 574.708 351.235 575.102 350.614C575.496 349.985 576.023 349.492 576.682 349.136C577.341 348.78 578.068 348.515 578.864 348.341C579.667 348.159 580.473 348.015 581.284 347.909C582.345 347.773 583.205 347.67 583.864 347.602C584.53 347.527 585.015 347.402 585.318 347.227C585.629 347.053 585.784 346.75 585.784 346.318V346.227C585.784 345.106 585.477 344.235 584.864 343.614C584.258 342.992 583.337 342.682 582.102 342.682C580.822 342.682 579.818 342.962 579.091 343.523C578.364 344.083 577.852 344.682 577.557 345.318L575.011 344.409C575.466 343.348 576.072 342.523 576.83 341.932C577.595 341.333 578.428 340.917 579.33 340.682C580.239 340.439 581.133 340.318 582.011 340.318C582.572 340.318 583.216 340.386 583.943 340.523C584.678 340.652 585.386 340.92 586.068 341.33C586.758 341.739 587.33 342.356 587.784 343.182C588.239 344.008 588.466 345.114 588.466 346.5V358H585.784V355.636H585.648C585.466 356.015 585.163 356.42 584.739 356.852C584.314 357.284 583.75 357.652 583.045 357.955C582.341 358.258 581.481 358.409 580.466 358.409ZM580.875 356C581.936 356 582.83 355.792 583.557 355.375C584.292 354.958 584.845 354.42 585.216 353.761C585.595 353.102 585.784 352.409 585.784 351.682V349.227C585.67 349.364 585.42 349.489 585.034 349.602C584.655 349.708 584.216 349.803 583.716 349.886C583.223 349.962 582.742 350.03 582.273 350.091C581.811 350.144 581.436 350.189 581.148 350.227C580.451 350.318 579.799 350.466 579.193 350.67C578.595 350.867 578.11 351.167 577.739 351.568C577.375 351.962 577.193 352.5 577.193 353.182C577.193 354.114 577.538 354.818 578.227 355.295C578.924 355.765 579.807 356 580.875 356ZM595.861 351.636L595.815 348.318H596.361L603.997 340.545H607.315L599.179 348.773H598.952L595.861 351.636ZM593.361 358V334.727H596.043V358H593.361ZM604.452 358L597.634 349.364L599.543 347.5L607.861 358H604.452ZM610.767 358V340.545H613.449V358H610.767ZM612.131 337.636C611.608 337.636 611.157 337.458 610.778 337.102C610.407 336.746 610.222 336.318 610.222 335.818C610.222 335.318 610.407 334.89 610.778 334.534C611.157 334.178 611.608 334 612.131 334C612.653 334 613.1 334.178 613.472 334.534C613.85 334.89 614.04 335.318 614.04 335.818C614.04 336.318 613.85 336.746 613.472 337.102C613.1 337.458 612.653 337.636 612.131 337.636ZM621.043 347.5V358H618.361V340.545H620.952V343.273H621.179C621.588 342.386 622.209 341.674 623.043 341.136C623.876 340.591 624.952 340.318 626.27 340.318C627.452 340.318 628.486 340.561 629.372 341.045C630.259 341.523 630.948 342.25 631.44 343.227C631.933 344.197 632.179 345.424 632.179 346.909V358H629.497V347.091C629.497 345.72 629.141 344.652 628.429 343.886C627.717 343.114 626.74 342.727 625.497 342.727C624.641 342.727 623.876 342.913 623.202 343.284C622.535 343.655 622.009 344.197 621.622 344.909C621.236 345.621 621.043 346.485 621.043 347.5ZM644.125 364.909C642.83 364.909 641.716 364.742 640.784 364.409C639.852 364.083 639.076 363.652 638.455 363.114C637.841 362.583 637.352 362.015 636.989 361.409L639.125 359.909C639.367 360.227 639.674 360.591 640.045 361C640.417 361.417 640.924 361.777 641.568 362.08C642.22 362.39 643.072 362.545 644.125 362.545C645.534 362.545 646.697 362.205 647.614 361.523C648.53 360.841 648.989 359.773 648.989 358.318V354.773H648.761C648.564 355.091 648.284 355.485 647.92 355.955C647.564 356.417 647.049 356.83 646.375 357.193C645.708 357.549 644.807 357.727 643.67 357.727C642.261 357.727 640.996 357.394 639.875 356.727C638.761 356.061 637.879 355.091 637.227 353.818C636.583 352.545 636.261 351 636.261 349.182C636.261 347.394 636.576 345.837 637.205 344.511C637.833 343.178 638.708 342.148 639.83 341.42C640.951 340.686 642.246 340.318 643.716 340.318C644.852 340.318 645.754 340.508 646.42 340.886C647.095 341.258 647.61 341.682 647.966 342.159C648.33 342.629 648.61 343.015 648.807 343.318H649.08V340.545H651.67V358.5C651.67 360 651.33 361.22 650.648 362.159C649.973 363.106 649.064 363.799 647.92 364.239C646.784 364.686 645.519 364.909 644.125 364.909ZM644.034 355.318C645.11 355.318 646.019 355.072 646.761 354.58C647.504 354.087 648.068 353.379 648.455 352.455C648.841 351.53 649.034 350.424 649.034 349.136C649.034 347.879 648.845 346.769 648.466 345.807C648.087 344.845 647.527 344.091 646.784 343.545C646.042 343 645.125 342.727 644.034 342.727C642.898 342.727 641.951 343.015 641.193 343.591C640.443 344.167 639.879 344.939 639.5 345.909C639.129 346.879 638.943 347.955 638.943 349.136C638.943 350.348 639.133 351.42 639.511 352.352C639.898 353.277 640.466 354.004 641.216 354.534C641.973 355.057 642.913 355.318 644.034 355.318ZM670.716 358.409C669.61 358.409 668.606 358.201 667.705 357.784C666.803 357.36 666.087 356.75 665.557 355.955C665.027 355.152 664.761 354.182 664.761 353.045C664.761 352.045 664.958 351.235 665.352 350.614C665.746 349.985 666.273 349.492 666.932 349.136C667.591 348.78 668.318 348.515 669.114 348.341C669.917 348.159 670.723 348.015 671.534 347.909C672.595 347.773 673.455 347.67 674.114 347.602C674.78 347.527 675.265 347.402 675.568 347.227C675.879 347.053 676.034 346.75 676.034 346.318V346.227C676.034 345.106 675.727 344.235 675.114 343.614C674.508 342.992 673.587 342.682 672.352 342.682C671.072 342.682 670.068 342.962 669.341 343.523C668.614 344.083 668.102 344.682 667.807 345.318L665.261 344.409C665.716 343.348 666.322 342.523 667.08 341.932C667.845 341.333 668.678 340.917 669.58 340.682C670.489 340.439 671.383 340.318 672.261 340.318C672.822 340.318 673.466 340.386 674.193 340.523C674.928 340.652 675.636 340.92 676.318 341.33C677.008 341.739 677.58 342.356 678.034 343.182C678.489 344.008 678.716 345.114 678.716 346.5V358H676.034V355.636H675.898C675.716 356.015 675.413 356.42 674.989 356.852C674.564 357.284 674 357.652 673.295 357.955C672.591 358.258 671.731 358.409 670.716 358.409ZM671.125 356C672.186 356 673.08 355.792 673.807 355.375C674.542 354.958 675.095 354.42 675.466 353.761C675.845 353.102 676.034 352.409 676.034 351.682V349.227C675.92 349.364 675.67 349.489 675.284 349.602C674.905 349.708 674.466 349.803 673.966 349.886C673.473 349.962 672.992 350.03 672.523 350.091C672.061 350.144 671.686 350.189 671.398 350.227C670.701 350.318 670.049 350.466 669.443 350.67C668.845 350.867 668.36 351.167 667.989 351.568C667.625 351.962 667.443 352.5 667.443 353.182C667.443 354.114 667.788 354.818 668.477 355.295C669.174 355.765 670.057 356 671.125 356ZM683.611 364.545V340.545H686.202V343.318H686.52C686.717 343.015 686.99 342.629 687.338 342.159C687.694 341.682 688.202 341.258 688.861 340.886C689.527 340.508 690.429 340.318 691.565 340.318C693.035 340.318 694.33 340.686 695.452 341.42C696.573 342.155 697.448 343.197 698.077 344.545C698.705 345.894 699.02 347.485 699.02 349.318C699.02 351.167 698.705 352.769 698.077 354.125C697.448 355.473 696.577 356.519 695.463 357.261C694.349 357.996 693.065 358.364 691.611 358.364C690.49 358.364 689.592 358.178 688.918 357.807C688.243 357.428 687.724 357 687.361 356.523C686.997 356.038 686.717 355.636 686.52 355.318H686.293V364.545H683.611ZM686.247 349.273C686.247 350.591 686.44 351.754 686.827 352.761C687.213 353.761 687.777 354.545 688.52 355.114C689.262 355.674 690.171 355.955 691.247 355.955C692.368 355.955 693.304 355.659 694.054 355.068C694.812 354.47 695.38 353.667 695.759 352.659C696.145 351.644 696.338 350.515 696.338 349.273C696.338 348.045 696.149 346.939 695.77 345.955C695.399 344.962 694.834 344.178 694.077 343.602C693.327 343.019 692.384 342.727 691.247 342.727C690.156 342.727 689.24 343.004 688.497 343.557C687.755 344.102 687.194 344.867 686.815 345.852C686.437 346.83 686.247 347.97 686.247 349.273ZM703.111 364.545V340.545H705.702V343.318H706.02C706.217 343.015 706.49 342.629 706.838 342.159C707.194 341.682 707.702 341.258 708.361 340.886C709.027 340.508 709.929 340.318 711.065 340.318C712.535 340.318 713.83 340.686 714.952 341.42C716.073 342.155 716.948 343.197 717.577 344.545C718.205 345.894 718.52 347.485 718.52 349.318C718.52 351.167 718.205 352.769 717.577 354.125C716.948 355.473 716.077 356.519 714.963 357.261C713.849 357.996 712.565 358.364 711.111 358.364C709.99 358.364 709.092 358.178 708.418 357.807C707.743 357.428 707.224 357 706.861 356.523C706.497 356.038 706.217 355.636 706.02 355.318H705.793V364.545H703.111ZM705.747 349.273C705.747 350.591 705.94 351.754 706.327 352.761C706.713 353.761 707.277 354.545 708.02 355.114C708.762 355.674 709.671 355.955 710.747 355.955C711.868 355.955 712.804 355.659 713.554 355.068C714.312 354.47 714.88 353.667 715.259 352.659C715.645 351.644 715.838 350.515 715.838 349.273C715.838 348.045 715.649 346.939 715.27 345.955C714.899 344.962 714.334 344.178 713.577 343.602C712.827 343.019 711.884 342.727 710.747 342.727C709.656 342.727 708.74 343.004 707.997 343.557C707.255 344.102 706.694 344.867 706.315 345.852C705.937 346.83 705.747 347.97 705.747 349.273Z" fill="black"/>
<g filter="url(#filter0_df_841_13)">
<path d="M627 630.176L656.819 548.323L690.934 556.915L722.016 501.573L728.334 508.648L710.14 630.176H627Z" fill="#BDD2ED"/>
<path d="M664.402 587.239L646.712 630.176H700.79L687.144 602.148L664.402 587.239Z" fill="#A4BDDE"/>
<path d="M728.334 508.649L774.325 548.829L716.164 589.937L728.334 508.649Z" fill="white"/>
<path d="M812.231 580.416L774.326 548.829L716.163 589.938C716.163 589.938 710.438 628.185 710.14 630.178H807.935L812.231 580.416Z" fill="#A4BDDE"/>
<path d="M1016.41 572.583L1044.72 630.177H807.934L812.231 580.416L868.077 582.438L891.579 615.794L988.615 572.583L999.734 580.416L1016.41 572.583Z" fill="#BDD2ED"/>
<path d="M787.746 560.013L785.444 581.174L800.444 570.593L787.746 560.013Z" fill="#BDD2ED"/>
<path d="M868.077 582.438L988.615 572.583L891.579 615.794L868.077 582.438Z" fill="#BDD2ED"/>
<path d="M999.734 580.416L978.002 608.214L988.615 572.583L999.734 580.416Z" fill="#A4BDDE"/>
<path d="M964.399 574.563L978.002 608.214L988.615 572.583L964.399 574.563Z" fill="white"/>
<path d="M909.552 579.046L891.579 615.794L868.077 582.438L909.552 579.046Z" fill="white"/>
<path d="M1044.72 522.8L1016.41 572.582L1044.72 630.176H1066.2L1068.22 555.146L1044.72 522.8Z" fill="#A4BDDE"/>
<path d="M1145.29 572.582L1068.22 555.146L1066.2 630.176H1138.47L1145.29 572.582Z" fill="#BDD2ED"/>
<path d="M1178.9 551.608L1145.29 572.582L1138.47 630.176H1178.9V551.608Z" fill="#A4BDDE"/>
<path d="M1200.38 630.176L1178.9 551.608V630.176H1200.38Z" fill="#BDD2ED"/>
<path d="M1098.79 590.892L1092.22 630.177H1105.74L1098.79 590.892Z" fill="#A4BDDE"/>
<path d="M870.604 473.65L722.016 501.574L728.333 508.648L774.324 548.829L812.23 580.416L868.077 582.438L988.615 572.582L999.734 580.416L1016.41 572.582L1044.72 522.8L1068.22 555.146L1145.29 572.582L1178.9 551.608L1171.19 532.023L1117.37 473.65L1074.15 444.084L1029.8 366L947.172 522.8L918.364 479.336L869.845 522.8L870.604 473.65Z" fill="white"/>
<path d="M922.913 475.734L918.364 479.336L947.173 522.8L952.853 512.021L946.604 497.341L922.913 475.734Z" fill="#D4E3FA"/>
<path d="M877.429 471.565L870.606 473.649L869.847 522.8L900.098 495.7L884.973 483.505L877.429 471.565Z" fill="#D4E3FA"/>
<path d="M1029.81 366L1095.76 419.193L1133.41 469.733L1171.19 532.023L1117.37 473.649L1074.15 444.084L1029.81 366Z" fill="#D4E3FA"/>
<path d="M1016.41 451.582L988.615 513.866L1009.96 495.231L1016.41 451.582Z" fill="#D4E3FA"/>
<path d="M988.615 513.866L1011.73 538.585L1009.96 495.231L988.615 513.866Z" fill="#BDD2ED"/>
<path d="M1119.29 475.734L1133.41 469.733L1171.19 532.023L1119.29 475.734Z" fill="#BDD2ED"/>
<path d="M946.604 497.341L936.974 507.414L947.172 522.8L952.853 512.021L946.604 497.341Z" fill="#BDD2ED"/>
</g>
<g filter="url(#filter1_df_841_13)">
<path d="M0 630.211L23.8464 557.523L66.8629 593.409L62.6556 630.211H0Z" fill="#BDD2ED"/>
<path d="M96.1454 589.902L66.8626 593.409L62.6553 630.211H84.0463L96.1454 589.902Z" fill="#A4BDDE"/>
<path d="M131.038 630.211L96.145 589.902L84.0459 630.211H131.038Z" fill="#BDD2ED"/>
<path d="M166.224 572.251L158.742 630.211H187.733L214.15 541.859L166.224 572.251Z" fill="#BDD2ED"/>
<path d="M236.36 581.837L221.865 562.199L214.15 541.859L187.732 630.211H208.539L236.36 581.837Z" fill="#A4BDDE"/>
<path d="M291.066 606.619L236.36 581.837L208.538 630.211H297.145L291.066 606.619Z" fill="#BDD2ED"/>
<path d="M250.035 604.397L239.866 630.211H254.361L250.035 604.397Z" fill="#A4BDDE"/>
<path d="M23.8467 557.523L62.6559 549.574L139.104 485.926V383L200.123 437.706L205.032 462.605L220.112 472.424L241.854 520.819V532.741L291.067 606.618L236.361 581.837L221.865 562.199L214.15 541.859L166.224 572.251L158.742 630.211H131.039L96.146 589.902L66.8632 593.409L23.8467 557.523Z" fill="white"/>
<path d="M84.0463 481.542L62.6553 549.574L139.104 485.926V383L84.0463 481.542Z" fill="#D4E3FA"/>
<path d="M200.123 437.706L227.126 462.605L241.854 520.819L220.113 472.424L205.033 462.605L200.123 437.706Z" fill="#D4E3FA"/>
<path d="M184.343 493.114L170.667 466.286L173.897 488.842L150.853 501.004L175.091 497.169L179.784 529.935L184.343 493.114Z" fill="#D4E3FA"/>
<path d="M150.853 501.004L175.091 497.169L179.784 529.935L150.853 501.004Z" fill="#BDD2ED"/>
<path d="M227.125 462.605L220.112 472.424L241.854 520.819L227.125 462.605Z" fill="#BDD2ED"/>
<path d="M84.0463 481.542L139.104 485.926L62.6553 549.574L84.0463 481.542Z" fill="#BDD2ED"/>
</g>
<g filter="url(#filter2_df_841_13)">
<path d="M236.14 578.45L275.066 613.168L281.729 629.65H220.711L236.14 578.45Z" fill="#BDD2ED"/>
<path d="M304.173 554.954L295.757 629.65H306.276L314.694 578.45L304.173 554.954Z" fill="#BDD2ED"/>
<path d="M325.213 584.587L314.694 578.45L306.276 629.65H311.011L325.213 584.587Z" fill="#A4BDDE"/>
<path d="M329.422 629.65L375.712 565.124L377.582 629.65H329.422Z" fill="#BDD2ED"/>
<path d="M390.442 629.65L392.545 571.671L375.712 565.124L377.582 629.65H390.442Z" fill="#A4BDDE"/>
<path d="M428.081 564.188L420.833 629.65H390.441L392.545 571.671L428.081 564.188Z" fill="#BDD2ED"/>
<path d="M476.943 595.75L440.004 629.65H420.834L428.082 564.188L476.943 595.75Z" fill="#A4BDDE"/>
<path d="M483.956 629.65L476.942 595.75L440.003 629.65H483.956Z" fill="#BDD2ED"/>
<path d="M236.14 578.45L275.066 613.168L281.729 629.65H295.757L304.173 554.954L314.694 578.45L325.213 584.587L311.01 629.65H329.422L375.712 565.124L392.545 571.67L428.081 564.188L476.942 595.75L483.956 629.65H540.533L505.698 550.395L455.434 476.752L424.107 518.366L404.935 451.971L348.592 429.76L315.745 441.917L310.017 490.078L280.326 424.383L231.933 487.272L255.545 525.38L258.818 564.188L236.14 578.45Z" fill="white"/>
<path d="M404.935 451.971L429.951 460.621L455.433 476.752L424.106 518.366L404.935 451.971Z" fill="#D4E3FA"/>
<path d="M280.326 424.383L315.745 441.917L310.017 490.078L280.326 424.383Z" fill="#D4E3FA"/>
<path d="M231.933 487.272L253.551 567.501L258.818 564.188L255.545 525.381L231.933 487.272Z" fill="#BDD2ED"/>
<path d="M424.107 518.366L444.795 532.164L455.435 476.752L424.107 518.366Z" fill="#BDD2ED"/>
<path d="M353.503 470.317V500.513L329.422 520.522L369.849 515.795L353.503 470.317Z" fill="#D4E3FA"/>
<path d="M329.422 520.522L349.636 535.802L369.849 515.795L329.422 520.522Z" fill="#BDD2ED"/>
</g>
</g>
<defs>
<filter id="filter0_df_841_13" x="527" y="266" width="773.378" height="464.178" filterUnits="userSpaceOnUse" color-interpolation-filters="sRGB">
<feFlood flood-opacity="0" result="BackgroundImageFix"/>
<feColorMatrix in="SourceAlpha" type="matrix" values="0 0 0 0 0 0 0 0 0 0 0 0 0 0 0 0 0 0 127 0" result="hardAlpha"/>
<feOffset/>
<feGaussianBlur stdDeviation="50"/>
<feComposite in2="hardAlpha" operator="out"/>
<feColorMatrix type="matrix" values="0 0 0 0 0 0 0 0 0 0 0 0 0 0 0 0 0 0 0.25 0"/>
<feBlend mode="normal" in2="BackgroundImageFix" result="effect1_dropShadow_841_13"/>
<feBlend mode="normal" in="SourceGraphic" in2="effect1_dropShadow_841_13" result="shape"/>
<feGaussianBlur stdDeviation="1" result="effect2_foregroundBlur_841_13"/>
</filter>
<filter id="filter1_df_841_13" x="-100" y="283" width="497.146" height="447.211" filterUnits="userSpaceOnUse" color-interpolation-filters="sRGB">
<feFlood flood-opacity="0" result="BackgroundImageFix"/>
<feColorMatrix in="SourceAlpha" type="matrix" values="0 0 0 0 0 0 0 0 0 0 0 0 0 0 0 0 0 0 127 0" result="hardAlpha"/>
<feOffset/>
<feGaussianBlur stdDeviation="50"/>
<feComposite in2="hardAlpha" operator="out"/>
<feColorMatrix type="matrix" values="0 0 0 0 0 0 0 0 0 0 0 0 0 0 0 0 0 0 0.25 0"/>
<feBlend mode="normal" in2="BackgroundImageFix" result="effect1_dropShadow_841_13"/>
<feBlend mode="normal" in="SourceGraphic" in2="effect1_dropShadow_841_13" result="shape"/>
<feGaussianBlur stdDeviation="1" result="effect2_foregroundBlur_841_13"/>
</filter>
<filter id="filter2_df_841_13" x="120.711" y="324.383" width="519.822" height="405.267" filterUnits="userSpaceOnUse" color-interpolation-filters="sRGB">
<feFlood flood-opacity="0" result="BackgroundImageFix"/>
<feColorMatrix in="SourceAlpha" type="matrix" values="0 0 0 0 0 0 0 0 0 0 0 0 0 0 0 0 0 0 127 0" result="hardAlpha"/>
<feOffset/>
<feGaussianBlur stdDeviation="50"/>
<feComposite in2="hardAlpha" operator="out"/>
<feColorMatrix type="matrix" values="0 0 0 0 0 0 0 0 0 0 0 0 0 0 0 0 0 0 0.25 0"/>
<feBlend mode="normal" in2="BackgroundImageFix" result="effect1_dropShadow_841_13"/>
<feBlend mode="normal" in="SourceGraphic" in2="effect1_dropShadow_841_13" result="shape"/>
<feGaussianBlur stdDeviation="1" result="effect2_foregroundBlur_841_13"/>
</filter>
<linearGradient id="paint0_linear_841_13" x1="600" y1="0" x2="600" y2="630" gradientUnits="userSpaceOnUse">
<stop stop-color="#DEF1FF"/>
<stop offset="0.645" stop-color="#FCDEFF"/>
</linearGradient>
<clipPath id="clip0_841_13">
<rect width="1200" height="630" fill="white"/>
</clipPath>
</defs>
</svg>
