<svg width="250" height="48" viewBox="0 0 250 48" fill="none" xmlns="http://www.w3.org/2000/svg">
<path d="M63.2651 42.0001V8.1121H70.8011V42.0001H63.2651ZM87.9356 42.5281C85.5356 42.5281 83.3596 42.0001 81.4076 40.9441C79.4556 39.8881 77.9196 38.4321 76.7996 36.5761C75.6796 34.7201 75.1196 32.6401 75.1196 30.3361C75.1196 28.0001 75.6796 25.9201 76.7996 24.0961C77.9516 22.2401 79.5036 20.7841 81.4556 19.7281C83.4076 18.6721 85.5996 18.1441 88.0316 18.1441C89.8556 18.1441 91.5196 18.4641 93.0236 19.1041C94.5596 19.7121 95.9196 20.6401 97.1036 21.8881L92.3996 26.5921C91.8556 25.9841 91.2156 25.5361 90.4796 25.2481C89.7756 24.9601 88.9596 24.8161 88.0316 24.8161C86.9756 24.8161 86.0316 25.0561 85.1996 25.5361C84.3996 25.9841 83.7596 26.6241 83.2796 27.4561C82.8316 28.2561 82.6076 29.2001 82.6076 30.2881C82.6076 31.3761 82.8316 32.3361 83.2796 33.1681C83.7596 34.0001 84.4156 34.6561 85.2476 35.1361C86.0796 35.6161 87.0076 35.8561 88.0316 35.8561C88.9916 35.8561 89.8396 35.6961 90.5756 35.3761C91.3436 35.0241 91.9996 34.5441 92.5436 33.9361L97.1996 38.6401C95.9836 39.9201 94.6076 40.8961 93.0716 41.5681C91.5356 42.2081 89.8236 42.5281 87.9356 42.5281ZM111.425 42.5281C108.898 42.5281 106.642 42.0161 104.658 40.9921C102.706 39.9361 101.17 38.4801 100.05 36.6241C98.9296 34.7681 98.3696 32.6721 98.3696 30.3361C98.3696 28.0001 98.9136 25.9201 100.002 24.0961C101.122 22.2401 102.626 20.7841 104.514 19.7281C106.402 18.6721 108.53 18.1441 110.897 18.1441C113.201 18.1441 115.233 18.6401 116.993 19.6321C118.753 20.6241 120.129 22.0001 121.121 23.7601C122.145 25.5201 122.657 27.5361 122.657 29.8081C122.657 30.2241 122.625 30.6721 122.561 31.1521C122.529 31.6001 122.449 32.1281 122.321 32.7361L102.21 32.7841V27.7441L119.201 27.6961L116.033 29.8081C116.001 28.4641 115.793 27.3601 115.409 26.4961C115.025 25.6001 114.449 24.9281 113.681 24.4801C112.945 24.0001 112.033 23.7601 110.945 23.7601C109.794 23.7601 108.786 24.0321 107.922 24.5761C107.09 25.0881 106.434 25.8241 105.954 26.7841C105.506 27.7441 105.282 28.9121 105.282 30.2881C105.282 31.6641 105.522 32.8481 106.002 33.8401C106.514 34.8001 107.218 35.5521 108.114 36.0961C109.042 36.6081 110.129 36.8641 111.377 36.8641C112.529 36.8641 113.569 36.6721 114.497 36.2881C115.425 35.8721 116.241 35.2641 116.945 34.4641L120.977 38.4961C119.825 39.8401 118.433 40.8481 116.801 41.5201C115.169 42.1921 113.377 42.5281 111.425 42.5281ZM128.999 42.0001V9.0241H136.343V42.0001H128.999ZM123.719 24.9121V18.6721H141.623V24.9121H123.719ZM155.91 42.5281C153.382 42.5281 151.126 42.0161 149.142 40.9921C147.19 39.9361 145.654 38.4801 144.534 36.6241C143.414 34.7681 142.854 32.6721 142.854 30.3361C142.854 28.0001 143.398 25.9201 144.486 24.0961C145.606 22.2401 147.11 20.7841 148.998 19.7281C150.886 18.6721 153.014 18.1441 155.382 18.1441C157.686 18.1441 159.718 18.6401 161.478 19.6321C163.238 20.6241 164.614 22.0001 165.606 23.7601C166.63 25.5201 167.142 27.5361 167.142 29.8081C167.142 30.2241 167.11 30.6721 167.046 31.1521C167.014 31.6001 166.934 32.1281 166.806 32.7361L146.694 32.7841V27.7441L163.686 27.6961L160.518 29.8081C160.486 28.4641 160.278 27.3601 159.894 26.4961C159.51 25.6001 158.934 24.9281 158.166 24.4801C157.43 24.0001 156.518 23.7601 155.43 23.7601C154.278 23.7601 153.27 24.0321 152.406 24.5761C151.574 25.0881 150.918 25.8241 150.438 26.7841C149.99 27.7441 149.766 28.9121 149.766 30.2881C149.766 31.6641 150.006 32.8481 150.486 33.8401C150.998 34.8001 151.702 35.5521 152.598 36.0961C153.526 36.6081 154.614 36.8641 155.862 36.8641C157.014 36.8641 158.054 36.6721 158.982 36.2881C159.91 35.8721 160.726 35.2641 161.43 34.4641L165.462 38.4961C164.31 39.8401 162.918 40.8481 161.286 41.5201C159.654 42.1921 157.862 42.5281 155.91 42.5281ZM170.687 42.0001V18.6721H178.031V42.0001H170.687ZM178.031 29.1841L174.959 26.7841C175.567 24.0641 176.591 21.9521 178.031 20.4481C179.471 18.9441 181.471 18.1921 184.031 18.1921C185.151 18.1921 186.127 18.3681 186.959 18.7201C187.823 19.0401 188.575 19.5521 189.215 20.2561L184.847 25.7761C184.527 25.4241 184.127 25.1521 183.647 24.9601C183.167 24.7681 182.623 24.6721 182.015 24.6721C180.799 24.6721 179.823 25.0561 179.087 25.8241C178.383 26.5601 178.031 27.6801 178.031 29.1841ZM191.171 42.0001V18.6721H198.515V42.0001H191.171ZM194.867 15.4561C193.715 15.4561 192.755 15.0721 191.987 14.3041C191.251 13.5041 190.883 12.5441 190.883 11.4241C190.883 10.2721 191.251 9.3121 191.987 8.5441C192.755 7.7761 193.715 7.3921 194.867 7.3921C196.019 7.3921 196.963 7.7761 197.699 8.5441C198.435 9.3121 198.803 10.2721 198.803 11.4241C198.803 12.5441 198.435 13.5041 197.699 14.3041C196.963 15.0721 196.019 15.4561 194.867 15.4561ZM212.183 42.5761C210.807 42.5761 209.447 42.4001 208.103 42.0481C206.791 41.6961 205.559 41.2001 204.407 40.5601C203.287 39.8881 202.327 39.1201 201.527 38.2561L205.703 34.0321C206.471 34.8641 207.383 35.5201 208.439 36.0001C209.495 36.4481 210.647 36.6721 211.895 36.6721C212.759 36.6721 213.415 36.5441 213.863 36.2881C214.343 36.0321 214.583 35.6801 214.583 35.2321C214.583 34.6561 214.295 34.2241 213.719 33.9361C213.175 33.6161 212.471 33.3441 211.607 33.1201C210.743 32.8641 209.831 32.5921 208.871 32.3041C207.911 32.0161 206.999 31.6161 206.135 31.1041C205.271 30.5921 204.567 29.8881 204.023 28.9921C203.479 28.0641 203.207 26.8961 203.207 25.4881C203.207 23.9841 203.591 22.6881 204.359 21.6001C205.127 20.4801 206.215 19.6001 207.623 18.9601C209.031 18.3201 210.679 18.0001 212.567 18.0001C214.551 18.0001 216.375 18.3521 218.039 19.0561C219.735 19.7281 221.111 20.7361 222.167 22.0801L217.991 26.3041C217.255 25.4401 216.423 24.8321 215.495 24.4801C214.599 24.1281 213.719 23.9521 212.855 23.9521C212.023 23.9521 211.399 24.0801 210.983 24.3361C210.567 24.5601 210.359 24.8961 210.359 25.3441C210.359 25.8241 210.631 26.2081 211.175 26.4961C211.719 26.7841 212.423 27.0401 213.287 27.2641C214.151 27.4881 215.063 27.7601 216.023 28.0801C216.983 28.4001 217.895 28.8321 218.759 29.3761C219.623 29.9201 220.327 30.6561 220.871 31.5841C221.415 32.4801 221.687 33.6641 221.687 35.1361C221.687 37.4081 220.823 39.2161 219.095 40.5601C217.399 41.9041 215.095 42.5761 212.183 42.5761ZM240.599 42.0001L232.439 29.9041L240.551 18.6721H248.759L238.967 31.2961L239.207 28.2721L249.239 42.0001H240.599ZM225.671 42.0001V7.1521H233.015V42.0001H225.671Z" fill="#EAEAEA"/>
<path fill-rule="evenodd" clip-rule="evenodd" d="M24 0C10.7451 0 0 10.7451 0 24C0 37.2549 10.7451 48 24 48C37.2549 48 48 37.2549 48 24C48 10.7451 37.2549 0 24 0ZM23.9912 4C21.23 4 18.9912 6.2385 18.9912 9V15.3396L13.5015 12.1698C11.1099 10.7891 8.05176 11.6085 6.6709 14C5.29053 16.3914 6.10986 19.4493 8.50146 20.8301L13.9917 23.9999L8.50098 27.1699C6.10938 28.5507 5.29004 31.6086 6.6709 34C8.05127 36.3915 11.1094 37.2109 13.501 35.8302L18.9912 32.6602V39C18.9912 41.7615 21.23 44 23.9912 44C26.7529 44 28.9912 41.7615 28.9912 39V32.66L34.4819 35.8301C36.8735 37.2108 39.9316 36.3914 41.312 34C42.6929 31.6085 41.8735 28.5505 39.4819 27.1698L33.9917 23.9999L39.4814 20.8302C41.873 19.4495 42.6924 16.3915 41.3115 14C39.9312 11.6086 36.873 10.7892 34.4814 12.1699L28.9912 15.3397V9C28.9912 6.2385 26.7529 4 23.9912 4Z" fill="#EAEAEA"/>
</svg>
