<svg width="32" height="32" viewBox="0 0 32 32" fill="none" xmlns="http://www.w3.org/2000/svg">
<circle cx="16" cy="16" r="16" fill="#3C3C3C"/>
<path d="M16 16C18.2091 16 20 14.2091 20 12C20 9.79086 18.2091 8 16 8C13.7909 8 12 9.79086 12 12C12 14.2091 13.7909 16 16 16ZM18.6667 12C18.6667 13.4728 17.4728 14.6667 16 14.6667C14.5272 14.6667 13.3333 13.4728 13.3333 12C13.3333 10.5272 14.5272 9.33333 16 9.33333C17.4728 9.33333 18.6667 10.5272 18.6667 12Z" fill="#666666"/>
<path d="M24 22.6667C24 24 22.6667 24 22.6667 24H9.33333C9.33333 24 8 24 8 22.6667C8 21.3333 9.33333 17.3333 16 17.3333C22.6667 17.3333 24 21.3333 24 22.6667ZM22.6666 22.662C22.6647 22.333 22.4616 21.3473 21.5572 20.4428C20.6875 19.5731 19.0521 18.6667 16 18.6667C12.9478 18.6667 11.3125 19.5731 10.4428 20.4428C9.53834 21.3473 9.33523 22.333 9.33333 22.662H22.6666Z" fill="#666666"/>
</svg>
