<svg width="32" height="32" viewBox="0 0 32 32" fill="none" xmlns="http://www.w3.org/2000/svg">
<circle cx="16" cy="16" r="15.5" stroke="#FF5353"/>
<path fill-rule="evenodd" clip-rule="evenodd" d="M10.6556 21.9667C12.1741 23.3222 13.9556 24 16 24C17.1111 24 18.1519 23.7889 19.1222 23.3667C20.0926 22.9444 20.937 22.3741 21.6556 21.6556C22.3741 20.937 22.9444 20.0926 23.3667 19.1222C23.7889 18.1519 24 17.1111 24 16C24 14.8889 23.7889 13.8481 23.3667 12.8778C22.9444 11.9074 22.3741 11.063 21.6556 10.3444C20.937 9.62593 20.0926 9.05556 19.1222 8.63333C18.1519 8.21111 17.1111 8 16 8C14.7852 8 13.6333 8.25926 12.5444 8.77778C11.4556 9.2963 10.5333 10.0296 9.77778 10.9778V8.88889H8V14.2222H13.3333V12.4444H10.8889C11.4963 11.6148 12.2444 10.963 13.1333 10.4889C14.0222 10.0148 14.9778 9.77778 16 9.77778C17.7333 9.77778 19.2037 10.3815 20.4111 11.5889C21.6185 12.7963 22.2222 14.2667 22.2222 16C22.2222 17.7333 21.6185 19.2037 20.4111 20.4111C19.2037 21.6185 17.7333 22.2222 16 22.2222C14.4444 22.2222 13.0852 21.7185 11.9222 20.7111C10.7593 19.7037 10.0741 18.4296 9.86667 16.8889H8.04444C8.26667 18.9185 9.13704 20.6111 10.6556 21.9667Z" fill="#FF5353"/>
</svg>
